<svg width="472" height="232" viewBox="0 0 472 232" fill="none" xmlns="http://www.w3.org/2000/svg">
<rect width="472" height="232" fill="#0000FF"/>
<path d="M45.855 42.605V89H38.205C36.615 89 35.595 88.28 35.145 86.84L34.335 83.6C33.405 84.5 32.445 85.325 31.455 86.075C30.465 86.825 29.4 87.47 28.26 88.01C27.15 88.55 25.935 88.97 24.615 89.27C23.325 89.57 21.915 89.72 20.385 89.72C17.865 89.72 15.615 89.285 13.635 88.415C11.685 87.545 10.05 86.33 8.73 84.77C7.41 83.21 6.405 81.35 5.715 79.19C5.025 77.03 4.68 74.66 4.68 72.08V42.605H17.1V72.08C17.1 74.66 17.685 76.67 18.855 78.11C20.055 79.52 21.825 80.225 24.165 80.225C25.905 80.225 27.54 79.85 29.07 79.1C30.6 78.32 32.055 77.27 33.435 75.95V42.605H45.855ZM95.5941 34.595H76.5141V89H62.9691V34.595H43.8891V23.705H95.5941V34.595ZM120.693 60.335C120.693 59.045 120.513 57.815 120.153 56.645C119.823 55.475 119.283 54.44 118.533 53.54C117.783 52.64 116.838 51.935 115.698 51.425C114.558 50.885 113.193 50.615 111.603 50.615C108.633 50.615 106.308 51.455 104.628 53.135C102.948 54.815 101.853 57.215 101.343 60.335H120.693ZM101.163 67.715C101.553 72.065 102.783 75.245 104.853 77.255C106.953 79.265 109.683 80.27 113.043 80.27C114.753 80.27 116.223 80.075 117.453 79.685C118.713 79.265 119.808 78.815 120.738 78.335C121.698 77.825 122.553 77.375 123.303 76.985C124.083 76.565 124.848 76.355 125.598 76.355C126.558 76.355 127.308 76.715 127.848 77.435L131.448 81.935C130.128 83.465 128.673 84.74 127.083 85.76C125.493 86.75 123.843 87.545 122.133 88.145C120.423 88.715 118.698 89.105 116.958 89.315C115.218 89.555 113.538 89.675 111.918 89.675C108.678 89.675 105.648 89.15 102.828 88.1C100.038 87.02 97.5928 85.445 95.4928 83.375C93.4228 81.275 91.7878 78.68 90.5878 75.59C89.3878 72.5 88.7878 68.915 88.7878 64.835C88.7878 61.685 89.2978 58.715 90.3178 55.925C91.3678 53.135 92.8678 50.705 94.8178 48.635C96.7678 46.565 99.1378 44.93 101.928 43.73C104.718 42.5 107.868 41.885 111.378 41.885C114.348 41.885 117.078 42.365 119.568 43.325C122.088 44.255 124.248 45.62 126.048 47.42C127.878 49.22 129.288 51.44 130.278 54.08C131.298 56.69 131.808 59.675 131.808 63.035C131.808 63.965 131.763 64.73 131.673 65.33C131.583 65.93 131.433 66.41 131.223 66.77C131.013 67.13 130.728 67.385 130.368 67.535C130.008 67.655 129.543 67.715 128.973 67.715H101.163ZM151.035 48.005C151.965 47.105 152.925 46.28 153.915 45.53C154.935 44.78 156 44.135 157.11 43.595C158.25 43.055 159.465 42.635 160.755 42.335C162.075 42.035 163.5 41.885 165.03 41.885C167.55 41.885 169.785 42.32 171.735 43.19C173.685 44.06 175.32 45.275 176.64 46.835C177.99 48.395 178.995 50.255 179.655 52.415C180.345 54.575 180.69 56.945 180.69 59.525V89H168.315V59.525C168.315 56.945 167.715 54.95 166.515 53.54C165.315 52.1 163.545 51.38 161.205 51.38C159.465 51.38 157.83 51.755 156.3 52.505C154.77 53.255 153.315 54.305 151.935 55.655V89H139.515V42.605H147.165C148.725 42.605 149.76 43.325 150.27 44.765L151.035 48.005ZM219.244 54.665C218.074 53.315 216.799 52.37 215.419 51.83C214.069 51.29 212.629 51.02 211.099 51.02C209.599 51.02 208.234 51.305 207.004 51.875C205.774 52.445 204.709 53.345 203.809 54.575C202.939 55.775 202.264 57.32 201.784 59.21C201.304 61.1 201.064 63.35 201.064 65.96C201.064 68.54 201.259 70.73 201.649 72.53C202.039 74.33 202.594 75.785 203.314 76.895C204.064 78.005 204.964 78.815 206.014 79.325C207.064 79.805 208.234 80.045 209.524 80.045C211.714 80.045 213.544 79.61 215.014 78.74C216.514 77.87 217.924 76.64 219.244 75.05V54.665ZM231.664 21.905V89H224.014C222.424 89 221.404 88.28 220.954 86.84L219.919 82.79C218.989 83.81 217.999 84.74 216.949 85.58C215.929 86.42 214.819 87.155 213.619 87.785C212.419 88.385 211.129 88.85 209.749 89.18C208.369 89.51 206.869 89.675 205.249 89.675C202.759 89.675 200.479 89.15 198.409 88.1C196.339 87.05 194.539 85.52 193.009 83.51C191.509 81.47 190.339 78.98 189.499 76.04C188.659 73.1 188.239 69.74 188.239 65.96C188.239 62.51 188.704 59.3 189.634 56.33C190.594 53.36 191.944 50.795 193.684 48.635C195.424 46.475 197.524 44.78 199.984 43.55C202.444 42.32 205.174 41.705 208.174 41.705C210.694 41.705 212.809 42.08 214.519 42.83C216.259 43.58 217.834 44.6 219.244 45.89V21.905H231.664ZM271.425 60.335C271.425 59.045 271.245 57.815 270.885 56.645C270.555 55.475 270.015 54.44 269.265 53.54C268.515 52.64 267.57 51.935 266.43 51.425C265.29 50.885 263.925 50.615 262.335 50.615C259.365 50.615 257.04 51.455 255.36 53.135C253.68 54.815 252.585 57.215 252.075 60.335H271.425ZM251.895 67.715C252.285 72.065 253.515 75.245 255.585 77.255C257.685 79.265 260.415 80.27 263.775 80.27C265.485 80.27 266.955 80.075 268.185 79.685C269.445 79.265 270.54 78.815 271.47 78.335C272.43 77.825 273.285 77.375 274.035 76.985C274.815 76.565 275.58 76.355 276.33 76.355C277.29 76.355 278.04 76.715 278.58 77.435L282.18 81.935C280.86 83.465 279.405 84.74 277.815 85.76C276.225 86.75 274.575 87.545 272.865 88.145C271.155 88.715 269.43 89.105 267.69 89.315C265.95 89.555 264.27 89.675 262.65 89.675C259.41 89.675 256.38 89.15 253.56 88.1C250.77 87.02 248.325 85.445 246.225 83.375C244.155 81.275 242.52 78.68 241.32 75.59C240.12 72.5 239.52 68.915 239.52 64.835C239.52 61.685 240.03 58.715 241.05 55.925C242.1 53.135 243.6 50.705 245.55 48.635C247.5 46.565 249.87 44.93 252.66 43.73C255.45 42.5 258.6 41.885 262.11 41.885C265.08 41.885 267.81 42.365 270.3 43.325C272.82 44.255 274.98 45.62 276.78 47.42C278.61 49.22 280.02 51.44 281.01 54.08C282.03 56.69 282.54 59.675 282.54 63.035C282.54 63.965 282.495 64.73 282.405 65.33C282.315 65.93 282.165 66.41 281.955 66.77C281.745 67.13 281.46 67.385 281.1 67.535C280.74 67.655 280.275 67.715 279.705 67.715H251.895ZM301.902 50.255C303.372 47.615 305.067 45.53 306.987 44C308.907 42.47 311.157 41.705 313.737 41.705C315.837 41.705 317.547 42.2 318.867 43.19L318.057 52.37C317.907 52.97 317.667 53.39 317.337 53.63C317.037 53.84 316.617 53.945 316.077 53.945C315.597 53.945 314.907 53.885 314.007 53.765C313.107 53.615 312.267 53.54 311.487 53.54C310.347 53.54 309.327 53.705 308.427 54.035C307.557 54.365 306.777 54.83 306.087 55.43C305.397 56.03 304.767 56.765 304.197 57.635C303.657 58.505 303.147 59.495 302.667 60.605V89H290.247V42.605H297.582C298.842 42.605 299.712 42.83 300.192 43.28C300.672 43.73 301.017 44.51 301.227 45.62L301.902 50.255Z" transform="translate(76 62)" fill="white"/>
</svg>
